# xmcd
#
# Track frame offsets:
#	150
#	23205
#	34479
#	54907
#	84599
#	102904
#	121472
#	135394
#	162066
#
# Disc length: 2393 seconds
#
# Revision: 1
# Processed by: cddbd v1.5.2PL0 Copyright (c) Steve Scherf et al.
# Submitted via: audiograbber 1.83.01
#
DISCID=6c095709
DTITLE=Nordic Nomadic - Worldwide Skyline
DYEAR=2011
DGENRE=Metal
TTITLE0=Worldwide Skyline
TTITLE1=The future's fear
TTITLE2=Growin' horns
TTITLE3=Bite to chew
TTITLE4=Summer friends
TTITLE5=The soft way
TTITLE6=Take your heart to the end
TTITLE7=Listen to the leaves
TTITLE8=The things you've lost
EXTD=
EXTT0=
EXTT1=
EXTT2=
EXTT3=
EXTT4=
EXTT5=
EXTT6=
EXTT7=
EXTT8=
PLAYORDER=
